<?xml version="1.0" standalone="no"?>
<!DOCTYPE svg PUBLIC "-//W3C//DTD SVG 20010904//EN"
 "http://www.w3.org/TR/2001/REC-SVG-20010904/DTD/svg10.dtd">
<svg version="1.0" xmlns="http://www.w3.org/2000/svg"
 width="300.000000pt" height="300.000000pt" viewBox="0 0 300.000000 300.000000"
 preserveAspectRatio="xMidYMid meet">

<g transform="translate(0.000000,300.000000) scale(0.100000,-0.100000)"
fill="#000000" stroke="none">
<path d="M1522 2612 c2 -11 -18 -53 -45 -96 l-49 -76 -71 0 -72 -1 -190 -296
c-104 -163 -193 -301 -196 -306 -4 -6 -18 -2 -35 10 -16 11 -34 23 -40 26 -11
6 -94 -112 -94 -133 0 -8 61 -50 73 -50 3 0 14 16 26 36 l21 35 42 -26 c24
-14 49 -29 57 -34 11 -7 8 -17 -13 -53 l-27 -46 36 -21 c44 -26 52 -26 59 -3
4 9 15 28 25 41 l19 24 50 -31 51 -31 23 37 c12 20 107 169 211 331 132 206
187 300 184 315 -2 12 -13 44 -24 71 l-21 50 49 75 c29 46 57 77 70 80 19 5
12 11 -42 45 -81 51 -81 51 -77 27z"/>
<path d="M1562 2159 l-40 -62 25 -38 c22 -34 24 -42 14 -70 -16 -46 -13 -119
7 -159 12 -25 29 -39 62 -52 74 -28 92 -24 144 32 53 57 76 103 76 154 0 27 7
40 37 63 29 24 35 34 30 54 -10 39 -44 69 -79 69 -17 0 -45 10 -62 23 -20 16
-51 26 -86 30 -30 3 -62 8 -71 12 -12 4 -27 -11 -57 -56z"/>
<path d="M1420 1938 c-47 -73 -86 -137 -88 -144 -2 -7 22 -14 68 -18 108 -11
140 19 126 117 -3 23 -2 58 4 77 10 34 -2 100 -18 100 -4 0 -45 -60 -92 -132z"/>
<path d="M1904 2019 c-26 -16 -32 -27 -37 -71 -6 -47 -15 -65 -74 -147 -25
-34 -18 -93 17 -145 37 -54 50 -59 86 -35 16 11 47 28 69 38 22 10 57 32 79
50 26 21 50 31 72 31 23 0 37 6 44 19 13 26 14 23 -20 66 -16 21 -30 48 -30
61 0 14 -13 33 -35 49 -19 15 -42 43 -52 63 -15 31 -23 37 -53 39 -20 1 -48
-6 -66 -18z"/>
<path d="M1473 1754 c-40 -17 -41 -28 -4 -50 16 -9 40 -40 55 -71 23 -48 30
-54 54 -51 27 3 27 4 27 78 -1 103 -5 110 -57 109 -24 0 -58 -7 -75 -15z"/>
<path d="M1625 1739 c-4 -5 -1 -23 5 -40 7 -17 10 -46 6 -68 -10 -66 27 -85
89 -46 11 7 26 29 33 49 12 34 12 40 -4 58 -20 21 -89 58 -110 58 -7 0 -16 -5
-19 -11z"/>
<path d="M2120 1723 c-19 -2 -51 -17 -70 -32 -19 -15 -61 -40 -93 -56 -82 -42
-125 -121 -92 -171 22 -34 143 -70 186 -55 25 9 38 7 71 -10 29 -15 43 -17 53
-9 23 19 38 247 17 273 -5 7 -12 24 -16 40 -3 15 -10 26 -14 25 -4 0 -23 -3
-42 -5z"/>
<path d="M1383 1710 c-19 -8 -73 -78 -73 -96 0 -3 12 -5 28 -4 51 4 62 0 76
-28 20 -38 58 -55 91 -40 14 6 25 17 25 25 0 31 -51 112 -83 132 -19 12 -36
21 -38 20 -2 0 -14 -4 -26 -9z"/>
<path d="M1766 1595 c-9 -14 -33 -33 -51 -42 -41 -20 -43 -32 -12 -61 26 -25
88 -30 104 -9 28 34 19 137 -12 137 -7 0 -20 -11 -29 -25z"/>
<path d="M4 1490 c0 -58 1 -81 3 -52 2 28 2 76 0 105 -2 28 -3 5 -3 -53z"/>
<path d="M1267 1558 c-29 -38 -43 -93 -28 -103 6 -3 26 -1 44 6 25 9 46 9 87
0 52 -11 56 -11 73 10 9 12 17 25 17 29 0 5 -19 27 -42 49 -36 34 -50 41 -85
41 -36 0 -46 -5 -66 -32z"/>
<path d="M1605 1551 c-3 -5 -1 -12 5 -16 5 -3 10 -19 10 -36 0 -32 19 -39 39
-15 9 11 10 20 1 35 -13 25 -47 45 -55 32z"/>
<path d="M1529 1525 c-15 -8 -29 -22 -33 -30 -5 -14 2 -16 47 -13 48 3 52 5
52 28 0 30 -27 37 -66 15z"/>
<path d="M665 1440 c-8 -16 -15 -31 -15 -33 0 -3 81 -53 180 -112 99 -59 183
-111 185 -115 2 -4 -67 -126 -154 -271 -149 -248 -161 -264 -190 -267 -33 -3
-38 -19 -25 -70 l6 -22 799 0 799 0 0 45 0 45 -330 0 c-181 0 -330 2 -330 4 0
13 124 252 134 258 6 4 -5 8 -25 8 -138 0 -292 75 -375 182 -11 14 -90 66
-175 115 -85 49 -220 129 -301 176 -80 48 -151 87 -157 87 -6 0 -17 -13 -26
-30z"/>
<path d="M1510 1451 c-21 -6 -25 -13 -24 -45 2 -58 16 -63 64 -25 65 52 42 94
-40 70z"/>
<path d="M1628 1453 c-22 -5 -23 -17 -3 -33 16 -14 30 -7 45 21 11 20 0 23
-42 12z"/>
<path d="M1271 1431 c-18 -14 -25 -31 -29 -69 -4 -45 -1 -56 22 -87 35 -45 52
-44 72 5 13 32 23 42 53 50 20 5 47 10 60 10 21 0 23 3 17 32 -8 42 -21 56
-65 68 -54 15 -103 12 -130 -9z"/>
<path d="M1700 1428 c0 -27 27 -62 53 -71 23 -9 67 37 67 69 0 23 -4 24 -60
24 -56 0 -60 -2 -60 -22z"/>
<path d="M1662 1401 c-8 -5 -14 -25 -14 -45 0 -62 34 -83 80 -50 l23 15 -28
28 c-16 14 -32 34 -38 44 -7 11 -15 14 -23 8z"/>
<path d="M1836 1370 c-20 -22 -36 -43 -36 -48 0 -16 102 -132 116 -132 8 0 27
-18 42 -40 15 -21 32 -39 38 -40 35 -1 133 120 144 178 4 21 11 45 15 55 10
25 -50 49 -107 41 -27 -3 -59 0 -87 10 -66 24 -85 21 -125 -24z"/>
<path d="M1577 1379 c-44 -34 -51 -55 -25 -79 14 -12 33 -20 48 -18 23 3 25 7
25 57 0 30 -5 56 -11 58 -6 2 -23 -6 -37 -18z"/>
<path d="M1426 1319 c-42 -10 -76 -34 -76 -54 0 -7 -9 -20 -20 -30 -21 -19
-27 -45 -10 -45 5 0 34 -26 65 -57 66 -68 88 -66 93 7 2 31 12 54 33 77 36 42
36 52 1 86 -31 29 -29 29 -86 16z"/>
<path d="M1730 1271 c-35 -6 -35 -6 -38 -63 -2 -42 3 -71 17 -104 15 -33 18
-51 11 -64 -17 -32 -2 -53 34 -44 17 4 48 8 69 10 22 1 48 11 60 22 12 11 34
24 50 27 42 11 38 58 -9 99 -51 44 -86 79 -106 104 -18 23 -27 24 -88 13z"/>
<path d="M1549 1237 c-34 -29 -49 -58 -49 -98 0 -22 -9 -42 -27 -61 -14 -15
-25 -29 -22 -30 28 -18 97 -48 108 -48 8 0 28 -5 45 -11 73 -26 118 39 82 119
-9 21 -19 57 -21 82 -6 70 -62 93 -116 47z"/>
<path d="M320 576 c0 -2 8 -10 18 -17 15 -13 16 -12 3 4 -13 16 -21 21 -21 13z"/>
<path d="M370 517 c0 -1 35 -36 78 -77 l77 -75 -75 78 c-69 71 -80 82 -80 74z"/>
<path d="M550 346 c0 -2 8 -10 18 -17 15 -13 16 -12 3 4 -13 16 -21 21 -21 13z"/>
</g>
</svg>
