<?xml version="1.0" standalone="no"?>
<!DOCTYPE svg PUBLIC "-//W3C//DTD SVG 20010904//EN"
 "http://www.w3.org/TR/2001/REC-SVG-20010904/DTD/svg10.dtd">
<svg version="1.0" xmlns="http://www.w3.org/2000/svg"
 width="1184.000000pt" height="589.000000pt" viewBox="0 0 1184.000000 589.000000"
 preserveAspectRatio="xMidYMid meet">

<g transform="translate(0.000000,589.000000) scale(0.100000,-0.100000)"
fill="#000000" stroke="none">
<path d="M5955 4377 c6 -30 -3 -48 -75 -160 l-82 -127 -87 0 c-163 0 -135 22
-317 -261 -168 -263 -181 -283 -368 -574 -65 -102 -122 -185 -127 -185 -4 0
-35 18 -68 40 -33 22 -62 40 -64 40 -5 0 -147 -234 -147 -242 0 -4 30 -25 66
-48 53 -33 69 -39 76 -28 4 7 21 34 36 60 15 27 32 48 37 48 16 0 175 -101
175 -111 0 -5 -19 -39 -41 -75 -23 -36 -39 -68 -35 -71 3 -3 34 -23 68 -44
l63 -39 43 70 c25 39 49 70 54 70 6 0 44 -20 85 -45 40 -25 77 -45 82 -45 4 0
17 17 29 38 11 20 102 163 201 317 99 154 217 339 263 410 45 72 115 180 155
241 l73 112 -46 108 c-24 59 -42 114 -39 122 8 22 127 205 149 230 10 12 29
22 41 22 12 0 24 3 28 6 6 6 -213 154 -228 154 -3 0 -3 -15 0 -33z"/>
<path d="M6020 3614 l-69 -108 22 -29 c64 -84 66 -92 41 -167 -25 -76 -16
-180 21 -255 l30 -60 85 -27 c125 -40 129 -39 206 40 108 109 134 155 143 251
9 88 19 106 78 142 45 28 51 59 22 121 -29 61 -51 78 -106 78 -56 0 -84 12
-125 53 -34 33 -37 34 -134 39 -54 3 -109 10 -122 17 -21 11 -26 6 -92 -95z"/>
<path d="M3626 3525 c-9 -26 -7 -32 5 -12 6 10 9 21 6 23 -2 3 -7 -2 -11 -11z"/>
<path d="M5871 3383 c-34 -54 -104 -163 -155 -243 -52 -80 -92 -147 -89 -150
2 -2 32 -8 66 -12 34 -4 85 -10 112 -13 65 -9 117 12 145 57 17 28 20 50 20
153 0 66 1 147 2 180 2 47 -2 68 -18 93 l-20 32 -63 -97z"/>
<path d="M3596 3455 c-9 -26 -7 -32 5 -12 6 10 9 21 6 23 -2 3 -7 -2 -11 -11z"/>
<path d="M3576 3405 c-9 -26 -7 -32 5 -12 6 10 9 21 6 23 -2 3 -7 -2 -11 -11z"/>
<path d="M6620 3395 c-19 -14 -40 -25 -47 -25 -20 0 -40 -50 -46 -117 -6 -75
-35 -137 -99 -210 -48 -54 -48 -55 -47 -121 2 -58 6 -74 35 -119 19 -28 34
-56 34 -61 0 -14 58 -62 74 -62 7 0 28 11 47 25 19 14 70 42 114 64 44 21 108
62 143 90 57 46 68 51 113 51 40 0 55 5 74 25 35 34 31 54 -20 114 -31 37 -45
62 -45 82 0 43 -24 84 -65 109 -43 27 -79 72 -95 123 -20 62 -107 79 -170 32z"/>
<path d="M3506 3189 c-10 -33 -16 -63 -13 -65 2 -2 11 24 21 57 9 34 15 63 13
66 -2 2 -12 -24 -21 -58z"/>
<path d="M3476 3074 c-4 -20 -5 -38 -3 -40 3 -3 8 11 11 32 4 20 5 38 3 40 -3
3 -8 -11 -11 -32z"/>
<path d="M3462 3000 c0 -14 2 -19 5 -12 2 6 2 18 0 25 -3 6 -5 1 -5 -13z"/>
<path d="M3452 2950 c0 -14 2 -19 5 -12 2 6 2 18 0 25 -3 6 -5 1 -5 -13z"/>
<path d="M5904 2951 c-18 -11 -42 -21 -55 -23 -40 -5 -30 -41 21 -80 34 -25
56 -56 90 -122 l44 -88 39 5 c64 9 69 19 63 116 -10 165 -15 191 -43 202 -42
16 -125 11 -159 -10z"/>
<path d="M6129 2909 c-8 -17 -7 -31 6 -65 13 -34 15 -60 10 -117 -6 -68 -5
-73 18 -95 22 -21 29 -22 64 -13 56 15 107 52 111 81 2 13 11 34 19 47 32 49
-8 102 -117 154 -73 35 -95 36 -111 8z"/>
<path d="M3442 2895 c0 -16 2 -22 5 -12 2 9 2 23 0 30 -3 6 -5 -1 -5 -18z"/>
<path d="M7005 2889 c-11 -4 -41 -8 -66 -8 -40 -1 -54 -7 -95 -42 -27 -22 -92
-62 -144 -89 -131 -66 -178 -124 -187 -228 -5 -54 -3 -58 29 -89 25 -25 58
-39 138 -63 103 -29 106 -29 161 -14 56 16 57 16 105 -10 92 -49 134 -23 134
82 0 27 7 71 15 98 11 37 12 58 4 88 -6 21 -8 60 -4 87 6 39 3 54 -13 77 -11
15 -23 44 -27 64 -8 45 -23 58 -50 47z"/>
<path d="M5704 2856 c-34 -15 -64 -51 -64 -76 0 -8 -12 -26 -26 -39 -37 -36
-26 -46 44 -43 72 4 97 -7 116 -52 19 -44 61 -76 103 -76 38 0 88 22 96 43 3
8 -16 56 -42 108 -40 79 -55 98 -92 121 -49 30 -89 34 -135 14z"/>
<path d="M3432 2815 c0 -16 2 -22 5 -12 2 9 2 23 0 30 -3 6 -5 -1 -5 -18z"/>
<path d="M3423 2720 c0 -30 2 -43 4 -27 2 15 2 39 0 55 -2 15 -4 2 -4 -28z"/>
<path d="M6380 2698 c-12 -13 -29 -35 -37 -49 -9 -16 -38 -36 -69 -49 -30 -12
-56 -26 -59 -31 -8 -13 13 -50 47 -81 25 -24 38 -28 89 -28 51 0 64 4 85 25
16 16 23 32 20 41 -3 9 -1 32 5 53 12 44 -6 107 -38 128 -19 13 -23 12 -43 -9z"/>
<path d="M5609 2661 c-36 -5 -52 -14 -77 -42 -37 -42 -62 -106 -62 -156 0 -42
18 -50 61 -27 57 29 89 34 124 20 17 -8 59 -17 93 -21 l61 -7 20 41 c12 22 21
45 21 51 0 5 -32 42 -70 80 -75 75 -72 74 -171 61z"/>
<path d="M3414 2510 c0 -85 2 -120 3 -77 2 42 2 112 0 155 -1 42 -3 7 -3 -78z"/>
<path d="M6087 2604 c-3 -3 4 -21 15 -40 14 -23 18 -43 13 -61 -11 -44 25 -56
68 -23 31 25 27 47 -20 95 -31 32 -61 44 -76 29z"/>
<path d="M5979 2563 c-40 -19 -88 -68 -77 -78 2 -1 41 -4 88 -6 l85 -4 3 38
c6 68 -29 86 -99 50z"/>
<path d="M4553 2467 c-29 -38 -64 -110 -57 -117 5 -5 145 -90 312 -190 167
-100 302 -187 300 -194 -2 -6 -122 -211 -268 -454 l-265 -442 -47 0 -48 0 0
-49 c0 -27 4 -61 10 -75 l10 -26 1340 0 1340 0 0 75 0 75 -555 0 c-305 0 -555
2 -555 5 0 3 48 102 108 221 95 192 110 216 135 221 58 12 31 18 -82 19 -134
0 -224 21 -345 80 -96 47 -173 108 -244 194 -49 62 -71 78 -174 135 -65 36
-234 135 -376 219 -141 84 -306 181 -367 216 -60 35 -122 71 -136 81 -21 15
-29 16 -36 6z"/>
<path d="M5970 2440 c-8 -5 -24 -10 -36 -10 -27 0 -54 -30 -54 -61 0 -36 38
-109 56 -109 8 0 25 10 38 23 12 12 41 37 64 56 36 28 41 37 36 59 -4 15 -11
33 -17 40 -11 14 -66 16 -87 2z"/>
<path d="M6140 2435 c-43 -15 -49 -38 -16 -60 22 -15 27 -15 55 0 24 12 31 22
31 45 0 34 -11 36 -70 15z"/>
<path d="M5566 2415 c-20 -14 -41 -25 -46 -25 -16 0 -23 -22 -31 -108 -9 -84
-9 -86 21 -132 64 -100 93 -102 132 -11 31 71 59 89 154 98 41 4 68 11 71 20
6 16 -16 94 -34 119 -11 15 -170 63 -214 64 -9 0 -33 -11 -53 -25z"/>
<path d="M6247 2407 c-5 -36 31 -105 64 -123 47 -26 75 -18 114 32 36 49 38
53 26 94 -7 24 -9 25 -103 25 l-96 0 -5 -28z"/>
<path d="M6543 2360 c-12 -5 -24 -18 -28 -29 -3 -11 -15 -23 -25 -26 -26 -8
-62 -61 -62 -90 0 -45 128 -198 194 -231 26 -13 53 -34 59 -46 6 -13 22 -37
36 -55 21 -29 26 -31 51 -22 37 14 65 41 133 131 68 90 89 128 89 160 0 13 8
44 17 71 21 57 14 66 -63 90 -42 14 -62 15 -105 6 -49 -9 -63 -7 -153 20 -106
33 -110 34 -143 21z"/>
<path d="M6193 2349 c-17 -6 -23 -19 -28 -63 -13 -101 45 -153 124 -111 17 8
35 24 41 35 8 16 6 21 -17 32 -15 7 -42 35 -59 61 -39 59 -35 56 -61 46z"/>
<path d="M3423 2290 c0 -30 2 -43 4 -27 2 15 2 39 0 55 -2 15 -4 2 -4 -28z"/>
<path d="M6065 2329 c-64 -36 -108 -107 -84 -135 18 -22 84 -54 112 -54 39 0
49 20 38 76 -5 27 -8 65 -7 84 1 28 -3 35 -19 37 -11 2 -29 -2 -40 -8z"/>
<path d="M5752 2198 c-52 -20 -92 -57 -92 -87 0 -10 -13 -30 -30 -46 -16 -16
-30 -36 -30 -46 0 -9 24 -35 54 -57 30 -23 76 -66 102 -97 53 -61 78 -68 112
-32 17 18 20 33 19 83 -2 60 -1 61 52 122 63 74 63 92 -3 145 -51 43 -99 47
-184 15z"/>
<path d="M6340 2130 c-8 -5 -31 -10 -50 -10 -20 0 -41 -5 -47 -11 -7 -7 -9
-47 -6 -117 5 -95 9 -113 35 -160 29 -51 29 -54 15 -90 -16 -41 -8 -78 18 -88
8 -4 38 3 65 15 39 17 61 20 99 15 47 -6 51 -5 92 34 25 22 60 43 79 47 48 10
60 22 60 59 0 55 -31 93 -136 166 -23 15 -61 54 -85 87 -40 52 -49 58 -84 61
-22 1 -47 -2 -55 -8z"/>
<path d="M5993 2068 c-60 -63 -87 -121 -79 -176 5 -39 3 -47 -22 -70 -15 -15
-36 -31 -46 -37 -26 -15 -10 -42 29 -49 19 -4 48 -18 64 -31 20 -17 41 -25 67
-25 22 0 52 -9 69 -20 62 -41 148 -13 171 55 20 58 18 76 -16 140 -24 45 -30
70 -30 117 0 101 -33 138 -124 138 -36 0 -47 -6 -83 -42z"/>
<path d="M3452 2060 c0 -14 2 -19 5 -12 2 6 2 18 0 25 -3 6 -5 1 -5 -13z"/>
<path d="M3462 2010 c0 -14 2 -19 5 -12 2 6 2 18 0 25 -3 6 -5 1 -5 -13z"/>
<path d="M3472 1965 c0 -11 3 -29 8 -40 11 -25 11 1 0 35 -6 20 -8 21 -8 5z"/>
<path d="M3491 1874 c0 -11 3 -14 6 -6 3 7 2 16 -1 19 -3 4 -6 -2 -5 -13z"/>
<path d="M3511 1804 c0 -11 3 -14 6 -6 3 7 2 16 -1 19 -3 4 -6 -2 -5 -13z"/>
<path d="M3540 1716 c0 -16 71 -189 118 -286 224 -465 591 -855 1051 -1115
122 -69 386 -183 397 -172 2 2 -35 18 -84 37 -130 49 -347 161 -474 246 -433
289 -771 708 -963 1194 -37 93 -45 111 -45 96z"/>
<path d="M5170 119 c34 -14 201 -59 220 -58 13 0 -154 49 -220 64 l-25 5 25
-11z"/>
<path d="M5418 53 c6 -2 18 -2 25 0 6 3 1 5 -13 5 -14 0 -19 -2 -12 -5z"/>
<path d="M5468 43 c6 -2 18 -2 25 0 6 3 1 5 -13 5 -14 0 -19 -2 -12 -5z"/>
<path d="M5533 33 c9 -2 23 -2 30 0 6 3 -1 5 -18 5 -16 0 -22 -2 -12 -5z"/>
<path d="M5603 23 c9 -2 25 -2 35 0 9 3 1 5 -18 5 -19 0 -27 -2 -17 -5z"/>
<path d="M5698 13 c12 -2 30 -2 40 0 9 3 -1 5 -23 4 -22 0 -30 -2 -17 -4z"/>
<path d="M6128 13 c7 -3 16 -2 19 1 4 3 -2 6 -13 5 -11 0 -14 -3 -6 -6z"/>
<path d="M5878 3 c23 -2 59 -2 80 0 20 2 1 4 -43 4 -44 0 -61 -2 -37 -4z"/>
</g>
</svg>
